<svg xmlns="http://www.w3.org/2000/svg" xmlns:xlink="http://www.w3.org/1999/xlink" width="636" height="916" xml:space="preserve"><defs><filter id="fx0" x="-10%" y="-10%" width="120%" height="120%" filterUnits="userSpaceOnUse" primitiveUnits="userSpaceOnUse"><feGaussianBlur stdDeviation="6.875 6.875"></feGaussianBlur></filter><clipPath id="clip1"><rect x="2319" y="1275" width="636" height="916"></rect></clipPath><linearGradient x1="2986.15" y1="1948.63" x2="2288.82" y2="1384.31" gradientUnits="userSpaceOnUse" spreadMethod="reflect" id="fill2"><stop offset="0" stop-color="#3E9322"></stop><stop offset="0.5" stop-color="#5CD435"></stop><stop offset="1" stop-color="#6FFC41"></stop></linearGradient><clipPath id="clip3"><rect x="2442" y="1916" width="391" height="276"></rect></clipPath><clipPath id="clip4"><rect x="2442" y="1916" width="391" height="276"></rect></clipPath><clipPath id="clip5"><rect x="2442" y="1916" width="391" height="276"></rect></clipPath></defs><g clip-path="url(#clip1)" transform="translate(-2319 -1275)"><path d="M0 407.153 229.887 0 459.773 407.153Z" fill="#FFFFFF" fill-rule="evenodd" transform="matrix(-0.998105 0.0615366 0.0615366 0.998105 2854.6 1316.74)"></path><path d="M2637.49 1309.97C2612.34 1325.57 2532.43 1381.45 2436.64 1512.82 2350.73 1642.41 2300.06 1841.23 2419.23 1956.51 2500.59 2035.23 2596.35 2028.74 2637.49 2013.36 2678.61 2028.74 2774.38 2035.23 2855.74 1956.51 2974.9 1841.23 2924.24 1642.41 2838.33 1512.82 2742.54 1381.45 2662.63 1325.57 2637.49 1309.97Z" stroke="#000000" stroke-width="58.3112" stroke-miterlimit="8" fill="url(#fill2)" fill-rule="evenodd"></path><g><g><g><path d="M1227.5 1633.48C1227.5 1633.48 1222.12 1742.51 1222.06 1808.4 1221.99 1874.31 1229.03 2001.09 1229.03 2001.09 1229.03 2001.09 1234.08 1876.28 1234.47 1808.94 1234.85 1741.59 1227.5 1633.48 1227.5 1633.48Z" fill="#00B050" transform="matrix(1 0 0 1.56371 1407.3 -1175.24)"></path></g></g></g><path d="M2446 1692C2446 1659.97 2471.74 1634 2503.5 1634 2535.26 1634 2561 1659.97 2561 1692 2561 1724.03 2535.26 1750 2503.5 1750 2471.74 1750 2446 1724.03 2446 1692Z" fill-rule="evenodd"></path><path d="M2484 1673C2484 1657.54 2496.31 1645 2511.5 1645 2526.69 1645 2539 1657.54 2539 1673 2539 1688.46 2526.69 1701 2511.5 1701 2496.31 1701 2484 1688.46 2484 1673Z" fill="#FFFFFF" fill-rule="evenodd"></path><path d="M0 58.0001C-7.38419e-15 25.9675 25.9675-7.38419e-15 58.0001-1.47684e-14 90.0327-2.95367e-14 116 25.9675 116 58.0001 116 90.0327 90.0327 116 58.0001 116 25.9675 116-3.69209e-14 90.0327 0 58.0001Z" fill-rule="evenodd" transform="matrix(-1 0 0 1 2830 1634)"></path><path d="M0 28C-3.56478e-15 12.536 12.536-3.56478e-15 28-7.12955e-15 43.464-1.42591e-14 56 12.536 56 28 56 43.464 43.464 56 28 56 12.536 56-1.78239e-14 43.464 0 28Z" fill="#FFFFFF" fill-rule="evenodd" transform="matrix(-1 0 0 1 2792 1645)"></path><path d="M2694.55 1791.98C2675.16 1821.43 2635.89 1830.1 2606.83 1811.36 2598.54 1806 2591.67 1798.74 2586.79 1790.15" stroke="#000000" stroke-width="27.5" stroke-linecap="round" stroke-linejoin="round" stroke-miterlimit="10" fill="none" fill-rule="evenodd"></path><g filter="url(#fx0)" transform="translate(2558 1911)"><g><path d="M21.9998 80.3749C21.9998 48.0663 47.9673 21.875 79.9998 21.875 112.032 21.875 138 48.0663 138 80.3749 138 112.684 112.032 138.875 79.9998 138.875 47.9673 138.875 21.9998 112.684 21.9998 80.3749Z" fill="#05BCFE" fill-rule="evenodd"></path></g></g><path d="M2580 1984.5C2580 1952.19 2605.97 1926 2638 1926 2670.03 1926 2696 1952.19 2696 1984.5 2696 2016.81 2670.03 2043 2638 2043 2605.97 2043 2580 2016.81 2580 1984.5Z" fill="#05BCFE" fill-rule="evenodd"></path><g clip-path="url(#clip3)"><g clip-path="url(#clip4)"><g clip-path="url(#clip5)"><path d="M2828.31 1284.28C2788.56 1279.63 2745.48 1258.23 2715.43 1228.18 2678.17 1190.91 2657.93 1142.18 2657.95 1089.75L2657.96 1077.34 2693.69 1058.73C2713.35 1048.49 2730.12 1040.11 2730.98 1040.11 2731.83 1040.11 2739.11 1037.26 2747.15 1033.78 2767.75 1024.84 2790.43 1017.74 2813.37 1013.01 2830.71 1009.45 2879.85 1009.89 2897.62 1013.77 2936.89 1022.35 2954.59 1029.91 3034.78 1072.35L3049.15 1079.96 3048.99 1097.69C3048.8 1118.53 3046.58 1131.06 3039.18 1153.11 3018.09 1215.94 2965.29 1264.03 2899.43 1280.43 2879.3 1285.44 2851.25 1286.95 2828.31 1284.28ZM2820.02 1229.41C2822.47 1226.96 2822.67 1225.67 2821.97 1216.6 2818.68 1173.73 2789.92 1137.74 2749.77 1126.26 2738.54 1123.05 2720.66 1121.6 2716.93 1123.6 2713.14 1125.63 2713.26 1130.58 2717.38 1141.52 2732.66 1182.13 2765.01 1214.21 2804.88 1228.3 2817.6 1232.79 2816.7 1232.73 2820.02 1229.41ZM2897.06 1230.04C2906.71 1227.2 2930.86 1214.73 2939.16 1208.3 2949.22 1200.53 2961.61 1188.28 2970.06 1177.79 2981.58 1163.46 2997.41 1130.86 2995.38 1125.6 2993.38 1120.37 2982.76 1119.72 2965.28 1123.76 2942.77 1128.95 2920.16 1143.08 2907.36 1159.96 2894.44 1177 2887.23 1196.09 2885.69 1217.36 2885.11 1225.45 2885.38 1227.54 2887.27 1229.62 2888.52 1231 2889.63 1232.13 2889.75 1232.13 2889.87 1232.13 2893.16 1231.19 2897.06 1230.04ZM2869.54 1126.89C2890.91 1116.99 2900.19 1093.42 2890.59 1073.43 2883.39 1058.43 2869.48 1049.28 2853.86 1049.28 2825.32 1049.28 2804.96 1080.05 2816.73 1105.43 2826.44 1126.39 2849.98 1135.96 2869.54 1126.89Z" transform="matrix(1 0 0 1.00191 -215.957 903.49)"></path></g></g></g></g></svg>