<svg xmlns="http://www.w3.org/2000/svg" xmlns:xlink="http://www.w3.org/1999/xlink" width="975" height="975" xml:space="preserve"><defs><filter id="fx0" x="-10%" y="-10%" width="120%" height="120%" filterUnits="userSpaceOnUse" primitiveUnits="userSpaceOnUse"><feGaussianBlur stdDeviation="6.875 6.875"></feGaussianBlur></filter><linearGradient x1="2631.15" y1="1949.63" x2="1933.82" y2="1385.31" gradientUnits="userSpaceOnUse" spreadMethod="reflect" id="fill1"><stop offset="0" stop-color="#3E9322"></stop><stop offset="0.5" stop-color="#5CD435"></stop><stop offset="1" stop-color="#6FFC41"></stop></linearGradient></defs><g transform="translate(-1795 -1264)"><text fill="#FFFFFF" font-family="Calibri,Calibri_MSFontService,sans-serif" font-weight="400" font-size="83" transform="matrix(1 0 0 1 2262.02 1779)">#</text><path d="M0 407.153 229.887 0 459.773 407.153Z" fill="#FFFFFF" fill-rule="evenodd" transform="matrix(-0.998105 0.0615366 0.0615366 0.998105 2499.57 1317.86)"></path><path d="M2282.49 1310.97C2257.34 1326.57 2177.43 1382.46 2081.64 1513.82 1995.73 1643.41 1945.07 1842.23 2064.23 1957.51 2145.59 2036.23 2241.35 2029.74 2282.49 2014.36 2323.61 2029.74 2419.38 2036.23 2500.74 1957.51 2619.9 1842.23 2569.24 1643.41 2483.33 1513.82 2387.54 1382.46 2307.63 1326.57 2282.49 1310.97Z" stroke="#000000" stroke-width="58.3112" stroke-miterlimit="8" fill="url(#fill1)" fill-rule="evenodd"></path><g><g><g><path d="M1227.5 1633.48C1227.5 1633.48 1222.12 1742.51 1222.06 1808.4 1221.99 1874.31 1229.03 2001.09 1229.03 2001.09 1229.03 2001.09 1234.08 1876.28 1234.47 1808.94 1234.85 1741.59 1227.5 1633.48 1227.5 1633.48Z" fill="#00B050" transform="matrix(1 0 0 1.56371 1052.3 -1174.24)"></path></g></g></g><path d="M2091 1693.5C2091 1661.74 2116.74 1636 2148.5 1636 2180.26 1636 2206 1661.74 2206 1693.5 2206 1725.26 2180.26 1751 2148.5 1751 2116.74 1751 2091 1725.26 2091 1693.5Z" fill-rule="evenodd"></path><path d="M2129 1674.5C2129 1659.31 2141.31 1647 2156.5 1647 2171.69 1647 2184 1659.31 2184 1674.5 2184 1689.69 2171.69 1702 2156.5 1702 2141.31 1702 2129 1689.69 2129 1674.5Z" fill="#FFFFFF" fill-rule="evenodd"></path><path d="M0 57.5001C-7.38416e-15 25.7437 25.9674-7.32053e-15 57.9999-1.46411e-14 90.0324-2.92821e-14 116 25.7437 116 57.5001 116 89.2565 90.0324 115 57.9999 115 25.9674 115-3.69208e-14 89.2565 0 57.5001Z" fill-rule="evenodd" transform="matrix(-1 0 0 1 2475 1636)"></path><path d="M0 27.5C-3.56475e-15 12.3122 12.536-3.50112e-15 27.9998-7.00223e-15 43.4637-1.40045e-14 55.9997 12.3122 55.9997 27.5 55.9997 42.6878 43.4637 55 27.9998 55 12.536 55-1.78238e-14 42.6878 0 27.5Z" fill="#FFFFFF" fill-rule="evenodd" transform="matrix(-1 0 0 1 2437 1647)"></path><path d="M2339.52 1793.09C2320.13 1822.54 2280.86 1831.22 2251.8 1812.47 2243.51 1807.12 2236.64 1799.85 2231.75 1791.27" stroke="#000000" stroke-width="27.5" stroke-linecap="round" stroke-linejoin="round" stroke-miterlimit="10" fill="none" fill-rule="evenodd"></path><g filter="url(#fx0)" transform="translate(2202 1912)"><g><path d="M22 80.3751C22 48.0664 48.1913 21.8751 80.4999 21.8751 112.809 21.8751 139 48.0664 139 80.3751 139 112.684 112.809 138.875 80.4999 138.875 48.1913 138.875 22 112.684 22 80.3751Z" fill="#05BCFE" fill-rule="evenodd"></path></g></g><path d="M2224 1985.5C2224 1953.19 2250.19 1927 2282.5 1927 2314.81 1927 2341 1953.19 2341 1985.5 2341 2017.81 2314.81 2044 2282.5 2044 2250.19 2044 2224 2017.81 2224 1985.5Z" fill="#05BCFE" fill-rule="evenodd"></path><g><g><g><path d="M2828.31 1284.28C2788.56 1279.64 2745.48 1258.23 2715.44 1228.18 2678.17 1190.91 2657.94 1142.19 2657.95 1089.75L2657.96 1077.34 2693.7 1058.73C2713.35 1048.49 2730.13 1040.11 2730.98 1040.11 2731.83 1040.11 2739.11 1037.26 2747.16 1033.78 2767.76 1024.84 2790.43 1017.74 2813.37 1013.02 2830.71 1009.45 2879.85 1009.89 2897.63 1013.77 2936.9 1022.35 2954.6 1029.91 3034.78 1072.35L3049.16 1079.96 3048.99 1097.69C3048.8 1118.53 3046.58 1131.06 3039.18 1153.11 3018.09 1215.94 2965.3 1264.04 2899.43 1280.43 2879.3 1285.44 2851.26 1286.96 2828.31 1284.28ZM2820.02 1229.41C2822.47 1226.96 2822.67 1225.67 2821.98 1216.6 2818.69 1173.73 2789.92 1137.74 2749.77 1126.26 2738.54 1123.05 2720.66 1121.6 2716.93 1123.6 2713.14 1125.63 2713.26 1130.58 2717.38 1141.52 2732.67 1182.13 2765.02 1214.21 2804.88 1228.3 2817.6 1232.8 2816.7 1232.73 2820.02 1229.41ZM2897.06 1230.05C2906.71 1227.2 2930.86 1214.73 2939.17 1208.3 2949.22 1200.53 2961.62 1188.28 2970.06 1177.79 2981.58 1163.46 2997.41 1130.86 2995.39 1125.6 2993.38 1120.37 2982.77 1119.72 2965.28 1123.76 2942.77 1128.95 2920.16 1143.09 2907.36 1159.96 2894.44 1177 2887.23 1196.1 2885.7 1217.36 2885.11 1225.46 2885.38 1227.54 2887.27 1229.62 2888.52 1231 2889.64 1232.14 2889.75 1232.14 2889.87 1232.14 2893.16 1231.2 2897.06 1230.05ZM2869.54 1126.89C2890.91 1116.99 2900.2 1093.42 2890.6 1073.43 2883.4 1058.43 2869.49 1049.28 2853.87 1049.28 2825.32 1049.28 2804.97 1080.05 2816.73 1105.43 2826.44 1126.39 2849.98 1135.96 2869.54 1126.89Z" transform="matrix(1 0 0 1.00191 -570.96 904.49)"></path></g></g></g></g></svg>